<svg xmlns="http://www.w3.org/2000/svg" xmlns:xlink="http://www.w3.org/1999/xlink" width="365" height="341"><g transform="translate(-520 -499)"><path d="M540 536h325v284H540z" fill="#4bbfaf" fill-opacity=".7"/><path d="M732 697.33h128v100H732z" fill="#281724" fill-opacity=".5"/><use xlink:href="#a" transform="matrix(1,0,0,1,737,702.3333333333334) translate(51.185185185185176 86.44444444444444)"/><use xlink:href="#b" transform="matrix(1,0,0,1,737,702.3333333333334) translate(82.02469135802468 86.44444444444444)"/><path d="M785.83 737h38.34v-40h-38.34z" fill="#e02d3a" fill-opacity=".5"/><use xlink:href="#c" transform="matrix(1,0,0,1,790.8333333333334,702) translate(3.6975308641975317 17.22222222222222)"/><path d="M700 559h55.33v-40H700z" fill="#ccc"/><use xlink:href="#d" transform="matrix(1,0,0,1,705,524) translate(12.197530864197532 17.22222222222222)"/><path d="M777.33 559h55.34v-40h-55.34z" fill="#ccc"/><use xlink:href="#e" transform="matrix(1,0,0,1,782.3333333333334,524) translate(12.197530864197532 17.22222222222222)"/><path d="M700 620h141.67v-42.38H700z" fill="#ccc"/><use xlink:href="#f" transform="matrix(1,0,0,1,705,582.6201912630222) translate(46.74074074074074 19.166666666666668)"/><path d="M775 632.67h60V612h-60z" fill="#471b37"/><use xlink:href="#g" transform="matrix(1,0,0,1,780,617) translate(8.703703703703702 7.277777777777778)"/><path d="M704 633h60v-20.67h-60z" fill="#471b37"/><use xlink:href="#h" transform="matrix(1,0,0,1,709,617.3333333333333) translate(8.703703703703702 7.277777777777778)"/><path d="M775 660.67h60V640h-60z" fill="#471b37"/><use xlink:href="#i" transform="matrix(1,0,0,1,780,645) translate(11.913580246913579 7.277777777777778)"/><path d="M804.93 697.33l.07-36.66" stroke="#471b37" stroke-width="2" fill="none"/><path d="M804.93 697.33h-1zM806 660.67h-1 1z" fill="#471b37"/><path d="M540 782h69v38h-69z" fill="none"/><use xlink:href="#j" transform="matrix(1,0,0,1,540,782) translate(9.708703703703703 22.541666666666668)"/><path d="M727.67 559v18.62M808.7 559v18.62" stroke="#471b37" stroke-width="2" fill="none"/><path d="M600 559h55.33v-40H600z" fill="#ccc"/><use xlink:href="#k" transform="matrix(1,0,0,1,605,524) translate(12.197530864197532 17.22222222222222)"/><path d="M805 632.67V640" stroke="#000" stroke-width="2" fill="none"/><defs><path fill="#e6efed" d="M136-208V0H84v-208H4v-40h212v40h-80" id="l"/><path fill="#e6efed" d="M185-48c-13 30-37 53-82 52C43 2 14-33 14-96s30-98 90-98c62 0 83 45 84 108H66c0 31 8 55 39 56 18 0 30-7 34-22zm-45-69c5-46-57-63-70-21-2 6-4 13-4 21h74" id="m"/><path fill="#e6efed" d="M135-194c87-1 58 113 63 194h-50c-7-57 23-157-34-157-59 0-34 97-39 157H25l-1-190h47c2 12-1 28 3 38 12-26 28-41 61-42" id="n"/><path fill="#e6efed" d="M133-34C117-15 103 5 69 4 32 3 11-16 11-54c-1-60 55-63 116-61 1-26-3-47-28-47-18 1-26 9-28 27l-52-2c7-38 36-58 82-57s74 22 75 68l1 82c-1 14 12 18 25 15v27c-30 8-71 5-69-32zm-48 3c29 0 43-24 42-57-32 0-66-3-65 30 0 17 8 27 23 27" id="o"/><path fill="#e6efed" d="M115-3C79 11 28 4 28-45v-112H4v-33h27l15-45h31v45h36v33H77v99c-1 23 16 31 38 25v30" id="p"/><g id="a"><use transform="matrix(0.02469135802469136,0,0,0.02469135802469136,0,0)" xlink:href="#l"/><use transform="matrix(0.02469135802469136,0,0,0.02469135802469136,4.7407407407407405,0)" xlink:href="#m"/><use transform="matrix(0.02469135802469136,0,0,0.02469135802469136,9.679012345679013,0)" xlink:href="#n"/><use transform="matrix(0.02469135802469136,0,0,0.02469135802469136,15.086419753086421,0)" xlink:href="#o"/><use transform="matrix(0.02469135802469136,0,0,0.02469135802469136,20.024691358024693,0)" xlink:href="#n"/><use transform="matrix(0.02469135802469136,0,0,0.02469135802469136,25.4320987654321,0)" xlink:href="#p"/></g><path fill="#e6efed" d="M25-224v-37h50v37H25zM25 0v-190h50V0H25" id="q"/><path fill="#e6efed" d="M137-138c1-29-70-34-71-4 15 46 118 7 119 86 1 83-164 76-172 9l43-7c4 19 20 25 44 25 33 8 57-30 24-41C81-84 22-81 20-136c-2-80 154-74 161-7" id="r"/><path fill="#e6efed" d="M190-63c-7 42-38 67-86 67-59 0-84-38-90-98-12-110 154-137 174-36l-49 2c-2-19-15-32-35-32-30 0-35 28-38 64-6 74 65 87 74 30" id="s"/><g id="b"><use transform="matrix(0.02469135802469136,0,0,0.02469135802469136,0,0)" xlink:href="#q"/><use transform="matrix(0.02469135802469136,0,0,0.02469135802469136,2.469135802469136,0)" xlink:href="#n"/><use transform="matrix(0.02469135802469136,0,0,0.02469135802469136,7.8765432098765435,0)" xlink:href="#r"/><use transform="matrix(0.02469135802469136,0,0,0.02469135802469136,12.814814814814817,0)" xlink:href="#p"/><use transform="matrix(0.02469135802469136,0,0,0.02469135802469136,15.753086419753087,0)" xlink:href="#o"/><use transform="matrix(0.02469135802469136,0,0,0.02469135802469136,20.69135802469136,0)" xlink:href="#n"/><use transform="matrix(0.02469135802469136,0,0,0.02469135802469136,26.09876543209877,0)" xlink:href="#s"/><use transform="matrix(0.02469135802469136,0,0,0.02469135802469136,31.037037037037038,0)" xlink:href="#m"/></g><path fill="#e6efed" d="M100-194c63 0 86 42 84 106H49c0 40 14 67 53 68 26 1 43-12 49-29l28 8c-11 28-37 45-77 45C44 4 14-33 15-96c1-61 26-98 85-98zm52 81c6-60-76-77-97-28-3 7-6 17-6 28h103" id="t"/><path fill="#e6efed" d="M59-47c-2 24 18 29 38 22v24C64 9 27 4 27-40v-127H5v-23h24l9-43h21v43h35v23H59v120" id="u"/><path fill="#e6efed" d="M106-169C34-169 62-67 57 0H25v-261h32l-1 103c12-21 28-36 61-36 89 0 53 116 60 194h-32v-121c2-32-8-49-39-48" id="v"/><path fill="#e6efed" d="M101-251c68 0 85 55 85 127S166 4 100 4C33 4 14-52 14-124c0-73 17-127 87-127zm-1 229c47 0 54-49 54-102s-4-102-53-102c-51 0-55 48-55 102 0 53 5 102 54 102" id="w"/><g id="c"><use transform="matrix(0.030864197530864196,0,0,0.030864197530864196,0,0)" xlink:href="#t"/><use transform="matrix(0.030864197530864196,0,0,0.030864197530864196,6.172839506172839,0)" xlink:href="#u"/><use transform="matrix(0.030864197530864196,0,0,0.030864197530864196,9.25925925925926,0)" xlink:href="#v"/><use transform="matrix(0.030864197530864196,0,0,0.030864197530864196,15.432098765432098,0)" xlink:href="#w"/></g><path d="M100-194c63 0 86 42 84 106H49c0 40 14 67 53 68 26 1 43-12 49-29l28 8c-11 28-37 45-77 45C44 4 14-33 15-96c1-61 26-98 85-98zm52 81c6-60-76-77-97-28-3 7-6 17-6 28h103" id="x"/><path d="M59-47c-2 24 18 29 38 22v24C64 9 27 4 27-40v-127H5v-23h24l9-43h21v43h35v23H59v120" id="y"/><path d="M106-169C34-169 62-67 57 0H25v-261h32l-1 103c12-21 28-36 61-36 89 0 53 116 60 194h-32v-121c2-32-8-49-39-48" id="z"/><path d="M27 0v-27h64v-190l-56 39v-29l58-41h29v221h61V0H27" id="A"/><g id="d"><use transform="matrix(0.030864197530864196,0,0,0.030864197530864196,0,0)" xlink:href="#x"/><use transform="matrix(0.030864197530864196,0,0,0.030864197530864196,6.172839506172839,0)" xlink:href="#y"/><use transform="matrix(0.030864197530864196,0,0,0.030864197530864196,9.25925925925926,0)" xlink:href="#z"/><use transform="matrix(0.030864197530864196,0,0,0.030864197530864196,15.432098765432098,0)" xlink:href="#A"/></g><path d="M101-251c82-7 93 87 43 132L82-64C71-53 59-42 53-27h129V0H18c2-99 128-94 128-182 0-28-16-43-45-43s-46 15-49 41l-32-3c6-41 34-60 81-64" id="B"/><g id="e"><use transform="matrix(0.030864197530864196,0,0,0.030864197530864196,0,0)" xlink:href="#x"/><use transform="matrix(0.030864197530864196,0,0,0.030864197530864196,6.172839506172839,0)" xlink:href="#y"/><use transform="matrix(0.030864197530864196,0,0,0.030864197530864196,9.25925925925926,0)" xlink:href="#z"/><use transform="matrix(0.030864197530864196,0,0,0.030864197530864196,15.432098765432098,0)" xlink:href="#B"/></g><path d="M160-131c35 5 61 23 61 61C221 17 115-2 30 0v-248c76 3 177-17 177 60 0 33-19 50-47 57zm-97-11c50-1 110 9 110-42 0-47-63-36-110-37v79zm0 115c55-2 124 14 124-45 0-56-70-42-124-44v89" id="C"/><path d="M100-194c62-1 85 37 85 99 1 63-27 99-86 99S16-35 15-95c0-66 28-99 85-99zM99-20c44 1 53-31 53-75 0-43-8-75-51-75s-53 32-53 75 10 74 51 75" id="D"/><path d="M117-194c89-4 53 116 60 194h-32v-121c0-31-8-49-39-48C34-167 62-67 57 0H25l-1-190h30c1 10-1 24 2 32 11-22 29-35 61-36" id="E"/><path d="M85-194c31 0 48 13 60 33l-1-100h32l1 261h-30c-2-10 0-23-3-31C134-8 116 4 85 4 32 4 16-35 15-94c0-66 23-100 70-100zm9 24c-40 0-46 34-46 75 0 40 6 74 45 74 42 0 51-32 51-76 0-42-9-74-50-73" id="F"/><path d="M101-251c68 0 85 55 85 127S166 4 100 4C33 4 14-52 14-124c0-73 17-127 87-127zm-1 229c47 0 54-49 54-102s-4-102-53-102c-51 0-55 48-55 102 0 53 5 102 54 102" id="G"/><g id="f"><use transform="matrix(0.03703703703703704,0,0,0.03703703703703704,0,0)" xlink:href="#C"/><use transform="matrix(0.03703703703703704,0,0,0.03703703703703704,8.88888888888889,0)" xlink:href="#D"/><use transform="matrix(0.03703703703703704,0,0,0.03703703703703704,16.296296296296298,0)" xlink:href="#E"/><use transform="matrix(0.03703703703703704,0,0,0.03703703703703704,23.703703703703706,0)" xlink:href="#F"/><use transform="matrix(0.03703703703703704,0,0,0.03703703703703704,31.111111111111114,0)" xlink:href="#G"/></g><path fill="#e6efed" d="M160-131c35 5 61 23 61 61C221 17 115-2 30 0v-248c76 3 177-17 177 60 0 33-19 50-47 57zm-97-11c50-1 110 9 110-42 0-47-63-36-110-37v79zm0 115c55-2 124 14 124-45 0-56-70-42-124-44v89" id="H"/><path fill="#e6efed" d="M100-194c62-1 85 37 85 99 1 63-27 99-86 99S16-35 15-95c0-66 28-99 85-99zM99-20c44 1 53-31 53-75 0-43-8-75-51-75s-53 32-53 75 10 74 51 75" id="I"/><path fill="#e6efed" d="M117-194c89-4 53 116 60 194h-32v-121c0-31-8-49-39-48C34-167 62-67 57 0H25l-1-190h30c1 10-1 24 2 32 11-22 29-35 61-36" id="J"/><path fill="#e6efed" d="M85-194c31 0 48 13 60 33l-1-100h32l1 261h-30c-2-10 0-23-3-31C134-8 116 4 85 4 32 4 16-35 15-94c0-66 23-100 70-100zm9 24c-40 0-46 34-46 75 0 40 6 74 45 74 42 0 51-32 51-76 0-42-9-74-50-73" id="K"/><path fill="#e6efed" d="M33 0v-38h34V0H33" id="L"/><path fill="#e6efed" d="M179-190L93 31C79 59 56 82 12 73V49c39 6 53-20 64-50L1-190h34L92-34l54-156h33" id="M"/><g id="g"><use transform="matrix(0.02469135802469136,0,0,0.02469135802469136,0,0)" xlink:href="#H"/><use transform="matrix(0.02469135802469136,0,0,0.02469135802469136,5.9259259259259265,0)" xlink:href="#I"/><use transform="matrix(0.02469135802469136,0,0,0.02469135802469136,10.8641975308642,0)" xlink:href="#J"/><use transform="matrix(0.02469135802469136,0,0,0.02469135802469136,15.80246913580247,0)" xlink:href="#K"/><use transform="matrix(0.02469135802469136,0,0,0.02469135802469136,20.740740740740744,0)" xlink:href="#w"/><use transform="matrix(0.02469135802469136,0,0,0.02469135802469136,25.679012345679016,0)" xlink:href="#L"/><use transform="matrix(0.02469135802469136,0,0,0.02469135802469136,28.14814814814815,0)" xlink:href="#M"/></g><path fill="#e6efed" d="M141 0L90-78 38 0H4l68-98-65-92h35l48 74 47-74h35l-64 92 68 98h-35" id="N"/><g id="h"><use transform="matrix(0.02469135802469136,0,0,0.02469135802469136,0,0)" xlink:href="#H"/><use transform="matrix(0.02469135802469136,0,0,0.02469135802469136,5.9259259259259265,0)" xlink:href="#I"/><use transform="matrix(0.02469135802469136,0,0,0.02469135802469136,10.8641975308642,0)" xlink:href="#J"/><use transform="matrix(0.02469135802469136,0,0,0.02469135802469136,15.80246913580247,0)" xlink:href="#K"/><use transform="matrix(0.02469135802469136,0,0,0.02469135802469136,20.740740740740744,0)" xlink:href="#w"/><use transform="matrix(0.02469135802469136,0,0,0.02469135802469136,25.679012345679016,0)" xlink:href="#L"/><use transform="matrix(0.02469135802469136,0,0,0.02469135802469136,28.14814814814815,0)" xlink:href="#N"/></g><path fill="#e6efed" d="M108 0H70L1-190h34L89-25l56-165h34" id="O"/><path fill="#e6efed" d="M135-143c-3-34-86-38-87 0 15 53 115 12 119 90S17 21 10-45l28-5c4 36 97 45 98 0-10-56-113-15-118-90-4-57 82-63 122-42 12 7 21 19 24 35" id="P"/><g id="i"><use transform="matrix(0.02469135802469136,0,0,0.02469135802469136,0,0)" xlink:href="#O"/><use transform="matrix(0.02469135802469136,0,0,0.02469135802469136,4.444444444444445,0)" xlink:href="#v"/><use transform="matrix(0.02469135802469136,0,0,0.02469135802469136,9.382716049382717,0)" xlink:href="#I"/><use transform="matrix(0.02469135802469136,0,0,0.02469135802469136,14.320987654320989,0)" xlink:href="#P"/><use transform="matrix(0.02469135802469136,0,0,0.02469135802469136,18.765432098765434,0)" xlink:href="#u"/><use transform="matrix(0.02469135802469136,0,0,0.02469135802469136,21.23456790123457,0)" xlink:href="#w"/></g><path fill="#471b37" d="M190-63c-7 42-38 67-86 67-59 0-84-38-90-98-12-110 154-137 174-36l-49 2c-2-19-15-32-35-32-30 0-35 28-38 64-6 74 65 87 74 30" id="Q"/><path fill="#471b37" d="M220-157c-53 9-28 100-34 157h-49v-107c1-27-5-49-29-50C55-147 81-57 75 0H25l-1-190h47c2 12-1 28 3 38 10-53 101-56 108 0 13-22 24-43 59-42 82 1 51 116 57 194h-49v-107c-1-25-5-48-29-50" id="R"/><path fill="#471b37" d="M135-194c53 0 70 44 70 98 0 56-19 98-73 100-31 1-45-17-59-34 3 33 2 69 2 105H25l-1-265h48c2 10 0 23 3 31 11-24 29-35 60-35zM114-30c33 0 39-31 40-66 0-38-9-64-40-64-56 0-55 130 0 130" id="S"/><path fill="#471b37" d="M101-251c68 0 84 54 84 127C185-50 166 4 99 4S15-52 14-124c-1-75 17-127 87-127zm-1 216c37-5 36-46 36-89s4-89-36-89c-39 0-36 45-36 89 0 43-3 85 36 89" id="T"/><path fill="#471b37" d="M23 0v-37h61v-169l-59 37v-38l62-41h46v211h57V0H23" id="U"/><g id="j"><use transform="matrix(0.03703703703703704,0,0,0.03703703703703704,0,0)" xlink:href="#Q"/><use transform="matrix(0.03703703703703704,0,0,0.03703703703703704,7.407407407407408,0)" xlink:href="#R"/><use transform="matrix(0.03703703703703704,0,0,0.03703703703703704,19.259259259259256,0)" xlink:href="#S"/><use transform="matrix(0.03703703703703704,0,0,0.03703703703703704,27.370370370370374,0)" xlink:href="#T"/><use transform="matrix(0.03703703703703704,0,0,0.03703703703703704,34.777777777777786,0)" xlink:href="#T"/><use transform="matrix(0.03703703703703704,0,0,0.03703703703703704,42.18518518518519,0)" xlink:href="#U"/></g><g id="k"><use transform="matrix(0.030864197530864196,0,0,0.030864197530864196,0,0)" xlink:href="#x"/><use transform="matrix(0.030864197530864196,0,0,0.030864197530864196,6.172839506172839,0)" xlink:href="#y"/><use transform="matrix(0.030864197530864196,0,0,0.030864197530864196,9.25925925925926,0)" xlink:href="#z"/><use transform="matrix(0.030864197530864196,0,0,0.030864197530864196,15.432098765432098,0)" xlink:href="#G"/></g></defs></g></svg>