<svg xmlns="http://www.w3.org/2000/svg" xmlns:xlink="http://www.w3.org/1999/xlink" width="745" height="339"><g transform="translate(-80 -121)"><path d="M480 197h325v243H480z" fill="#4bbfaf" fill-opacity=".7"/><path d="M640 220h55.33v-40H640z" fill="#ccc"/><use xlink:href="#a" transform="matrix(1,0,0,1,645,185) translate(12.197530864197532 17.22222222222222)"/><path d="M717.33 220h55.34v-40h-55.34z" fill="#ccc"/><use xlink:href="#b" transform="matrix(1,0,0,1,722.3333333333334,185) translate(12.197530864197532 17.22222222222222)"/><path d="M640 281h141.67v-42.38H640z" fill="#ccc"/><use xlink:href="#c" transform="matrix(1,0,0,1,645,243.6201912630222) translate(46.74074074074074 19.166666666666668)"/><path d="M675 294h60v-20.67h-60z" fill="#471b37"/><use xlink:href="#d" transform="matrix(1,0,0,1,680,278.3333333333333) translate(8.703703703703702 7.277777777777778)"/><path d="M714.14 380H805v53.36h-90.86z" fill="none"/><use xlink:href="#e" transform="matrix(1,0,0,1,714.140625,380) translate(18.486481481481484 20.791666666666668)"/><use xlink:href="#f" transform="matrix(1,0,0,1,714.140625,380) translate(20.745740740740743 36.79166666666667)"/><path d="M667.67 220v18.62M748.7 220v18.62" stroke="#471b37" stroke-width="2" fill="none"/><path d="M540 220h55.33v-40H540z" fill="#ccc"/><use xlink:href="#g" transform="matrix(1,0,0,1,545,185) translate(12.197530864197532 17.22222222222222)"/><path d="M100 197h325v163H100z" fill="#4bbfaf" fill-opacity=".7"/><path d="M260 220h55.33v-40H260z" fill="#ccc"/><use xlink:href="#a" transform="matrix(1,0,0,1,264.99999999999994,185) translate(12.197530864197532 17.22222222222222)"/><path d="M337.33 220h55.34v-40h-55.34z" fill="#ccc"/><use xlink:href="#b" transform="matrix(1,0,0,1,342.3333333333333,185) translate(12.197530864197532 17.22222222222222)"/><path d="M260 281h141.67v-42.38H260z" fill="#ccc"/><use xlink:href="#c" transform="matrix(1,0,0,1,264.99999999999994,243.6201912630222) translate(46.74074074074074 19.166666666666668)"/><path d="M335 293.67h60V273h-60z" fill="#471b37"/><use xlink:href="#h" transform="matrix(1,0,0,1,340,278.00000000000006) translate(8.703703703703702 7.277777777777778)"/><path d="M264 294h60v-20.67h-60z" fill="#471b37"/><use xlink:href="#d" transform="matrix(1,0,0,1,269,278.3333333333333) translate(8.703703703703702 7.277777777777778)"/><path d="M100 306.64h90.86V360H100z" fill="none"/><use xlink:href="#e" transform="matrix(1,0,0,1,100,306.640625) translate(18.486481481481484 20.791666666666668)"/><use xlink:href="#i" transform="matrix(1,0,0,1,100,306.640625) translate(16.708703703703705 36.79166666666667)"/><path d="M287.67 220v18.62M368.7 220v18.62" stroke="#471b37" stroke-width="2" fill="none"/><path d="M160 220h55.33v-40H160z" fill="#ccc"/><use xlink:href="#g" transform="matrix(1,0,0,1,164.99999999999997,185) translate(12.197530864197532 17.22222222222222)"/><path d="M531.5 323.48H675v87.04H531.5z" fill="#281724" fill-opacity=".5"/><use xlink:href="#j" transform="matrix(1,0,0,1,536.5,328.4784053156146) translate(72.61728395061728 74.44444444444444)"/><use xlink:href="#k" transform="matrix(1,0,0,1,536.5,328.4784053156146) translate(102.51851851851852 74.44444444444444)"/><path d="M550.78 358.3h34.44v-34.82h-34.44z" fill="#e02d3a" fill-opacity=".5"/><use xlink:href="#l" transform="matrix(1,0,0,1,555.7799479166666,328.4784053156146) translate(1.6975308641975317 14.722222222222221)"/><path d="M620 358.3h34.44v-34.82H620z" fill="#e02d3a" fill-opacity=".5"/><use xlink:href="#m" transform="matrix(1,0,0,1,625,328.4784053156146) translate(1.6975308641975317 14.722222222222221)"/><path d="M567.67 220v51.74h.33v51.74M705 294v46.9h-50.56" stroke="#000" stroke-width="2" fill="none"/><path d="M335 334.67h60v-31.34h-60z" fill="#471b37"/><use xlink:href="#n" transform="matrix(1,0,0,1,340,308.3333333333333) translate(15.641975308641975 7.444444444444444)"/><use xlink:href="#o" transform="matrix(1,0,0,1,340,308.3333333333333) translate(7.987654320987652 18.11111111111111)"/><path d="M365 303.33v-9.66M187.67 180v-40H568.8v40" stroke="#000" stroke-width="2" fill="none"/><path fill="#fff" d="M201.26 132h21.5v16h-21.5z"/><use xlink:href="#p" transform="matrix(1,0,0,1,201.25925925925927,132) translate(0 10.666666666666668)"/><path d="M304 273.33V150h381.6v123.33" stroke="#000" stroke-width="2" fill="none"/><path fill="#fff" d="M596.97 134h42.86v32h-42.86z"/><use xlink:href="#q" transform="matrix(1,0,0,1,596.9740740740742,134) translate(0 10.666666666666668)"/><use xlink:href="#r" transform="matrix(1,0,0,1,596.9740740740742,134) translate(0 26.666666666666668)"/><path d="M382.4 273V170M340 170h100" stroke="#000" stroke-width="2" fill="none"/><path fill="#fff" d="M409.32 154h32.57v32H409.3z"/><g><use xlink:href="#s" transform="matrix(1,0,0,1,409.32222222222225,154) translate(0 10.666666666666668)"/><use xlink:href="#r" transform="matrix(1,0,0,1,409.32222222222225,154) translate(0 26.666666666666668)"/></g><defs><path d="M100-194c63 0 86 42 84 106H49c0 40 14 67 53 68 26 1 43-12 49-29l28 8c-11 28-37 45-77 45C44 4 14-33 15-96c1-61 26-98 85-98zm52 81c6-60-76-77-97-28-3 7-6 17-6 28h103" id="t"/><path d="M59-47c-2 24 18 29 38 22v24C64 9 27 4 27-40v-127H5v-23h24l9-43h21v43h35v23H59v120" id="u"/><path d="M106-169C34-169 62-67 57 0H25v-261h32l-1 103c12-21 28-36 61-36 89 0 53 116 60 194h-32v-121c2-32-8-49-39-48" id="v"/><path d="M27 0v-27h64v-190l-56 39v-29l58-41h29v221h61V0H27" id="w"/><g id="a"><use transform="matrix(0.030864197530864196,0,0,0.030864197530864196,0,0)" xlink:href="#t"/><use transform="matrix(0.030864197530864196,0,0,0.030864197530864196,6.172839506172839,0)" xlink:href="#u"/><use transform="matrix(0.030864197530864196,0,0,0.030864197530864196,9.25925925925926,0)" xlink:href="#v"/><use transform="matrix(0.030864197530864196,0,0,0.030864197530864196,15.432098765432098,0)" xlink:href="#w"/></g><path d="M101-251c82-7 93 87 43 132L82-64C71-53 59-42 53-27h129V0H18c2-99 128-94 128-182 0-28-16-43-45-43s-46 15-49 41l-32-3c6-41 34-60 81-64" id="x"/><g id="b"><use transform="matrix(0.030864197530864196,0,0,0.030864197530864196,0,0)" xlink:href="#t"/><use transform="matrix(0.030864197530864196,0,0,0.030864197530864196,6.172839506172839,0)" xlink:href="#u"/><use transform="matrix(0.030864197530864196,0,0,0.030864197530864196,9.25925925925926,0)" xlink:href="#v"/><use transform="matrix(0.030864197530864196,0,0,0.030864197530864196,15.432098765432098,0)" xlink:href="#x"/></g><path d="M160-131c35 5 61 23 61 61C221 17 115-2 30 0v-248c76 3 177-17 177 60 0 33-19 50-47 57zm-97-11c50-1 110 9 110-42 0-47-63-36-110-37v79zm0 115c55-2 124 14 124-45 0-56-70-42-124-44v89" id="y"/><path d="M100-194c62-1 85 37 85 99 1 63-27 99-86 99S16-35 15-95c0-66 28-99 85-99zM99-20c44 1 53-31 53-75 0-43-8-75-51-75s-53 32-53 75 10 74 51 75" id="z"/><path d="M117-194c89-4 53 116 60 194h-32v-121c0-31-8-49-39-48C34-167 62-67 57 0H25l-1-190h30c1 10-1 24 2 32 11-22 29-35 61-36" id="A"/><path d="M85-194c31 0 48 13 60 33l-1-100h32l1 261h-30c-2-10 0-23-3-31C134-8 116 4 85 4 32 4 16-35 15-94c0-66 23-100 70-100zm9 24c-40 0-46 34-46 75 0 40 6 74 45 74 42 0 51-32 51-76 0-42-9-74-50-73" id="B"/><path d="M101-251c68 0 85 55 85 127S166 4 100 4C33 4 14-52 14-124c0-73 17-127 87-127zm-1 229c47 0 54-49 54-102s-4-102-53-102c-51 0-55 48-55 102 0 53 5 102 54 102" id="C"/><g id="c"><use transform="matrix(0.03703703703703704,0,0,0.03703703703703704,0,0)" xlink:href="#y"/><use transform="matrix(0.03703703703703704,0,0,0.03703703703703704,8.88888888888889,0)" xlink:href="#z"/><use transform="matrix(0.03703703703703704,0,0,0.03703703703703704,16.296296296296298,0)" xlink:href="#A"/><use transform="matrix(0.03703703703703704,0,0,0.03703703703703704,23.703703703703706,0)" xlink:href="#B"/><use transform="matrix(0.03703703703703704,0,0,0.03703703703703704,31.111111111111114,0)" xlink:href="#C"/></g><path fill="#e6efed" d="M160-131c35 5 61 23 61 61C221 17 115-2 30 0v-248c76 3 177-17 177 60 0 33-19 50-47 57zm-97-11c50-1 110 9 110-42 0-47-63-36-110-37v79zm0 115c55-2 124 14 124-45 0-56-70-42-124-44v89" id="D"/><path fill="#e6efed" d="M100-194c62-1 85 37 85 99 1 63-27 99-86 99S16-35 15-95c0-66 28-99 85-99zM99-20c44 1 53-31 53-75 0-43-8-75-51-75s-53 32-53 75 10 74 51 75" id="E"/><path fill="#e6efed" d="M117-194c89-4 53 116 60 194h-32v-121c0-31-8-49-39-48C34-167 62-67 57 0H25l-1-190h30c1 10-1 24 2 32 11-22 29-35 61-36" id="F"/><path fill="#e6efed" d="M85-194c31 0 48 13 60 33l-1-100h32l1 261h-30c-2-10 0-23-3-31C134-8 116 4 85 4 32 4 16-35 15-94c0-66 23-100 70-100zm9 24c-40 0-46 34-46 75 0 40 6 74 45 74 42 0 51-32 51-76 0-42-9-74-50-73" id="G"/><path fill="#e6efed" d="M101-251c68 0 85 55 85 127S166 4 100 4C33 4 14-52 14-124c0-73 17-127 87-127zm-1 229c47 0 54-49 54-102s-4-102-53-102c-51 0-55 48-55 102 0 53 5 102 54 102" id="H"/><path fill="#e6efed" d="M33 0v-38h34V0H33" id="I"/><path fill="#e6efed" d="M141 0L90-78 38 0H4l68-98-65-92h35l48 74 47-74h35l-64 92 68 98h-35" id="J"/><g id="d"><use transform="matrix(0.02469135802469136,0,0,0.02469135802469136,0,0)" xlink:href="#D"/><use transform="matrix(0.02469135802469136,0,0,0.02469135802469136,5.9259259259259265,0)" xlink:href="#E"/><use transform="matrix(0.02469135802469136,0,0,0.02469135802469136,10.8641975308642,0)" xlink:href="#F"/><use transform="matrix(0.02469135802469136,0,0,0.02469135802469136,15.80246913580247,0)" xlink:href="#G"/><use transform="matrix(0.02469135802469136,0,0,0.02469135802469136,20.740740740740744,0)" xlink:href="#H"/><use transform="matrix(0.02469135802469136,0,0,0.02469135802469136,25.679012345679016,0)" xlink:href="#I"/><use transform="matrix(0.02469135802469136,0,0,0.02469135802469136,28.14814814814815,0)" xlink:href="#J"/></g><path fill="#471b37" d="M24-248c93 1 206-16 204 79-1 75-69 88-152 82V0H24v-248zm52 121c47 0 100 7 100-41 0-47-54-39-100-39v80" id="K"/><path fill="#471b37" d="M114-157C55-157 80-60 75 0H25v-261h50l-1 109c12-26 28-41 61-42 86-1 58 113 63 194h-50c-7-57 23-157-34-157" id="L"/><path fill="#471b37" d="M123 10C108 53 80 86 19 72V37c35 8 53-11 59-39L3-190h52l48 148c12-52 28-100 44-148h51" id="M"/><path fill="#471b37" d="M137-138c1-29-70-34-71-4 15 46 118 7 119 86 1 83-164 76-172 9l43-7c4 19 20 25 44 25 33 8 57-30 24-41C81-84 22-81 20-136c-2-80 154-74 161-7" id="N"/><path fill="#471b37" d="M25-224v-37h50v37H25zM25 0v-190h50V0H25" id="O"/><path fill="#471b37" d="M190-63c-7 42-38 67-86 67-59 0-84-38-90-98-12-110 154-137 174-36l-49 2c-2-19-15-32-35-32-30 0-35 28-38 64-6 74 65 87 74 30" id="P"/><path fill="#471b37" d="M133-34C117-15 103 5 69 4 32 3 11-16 11-54c-1-60 55-63 116-61 1-26-3-47-28-47-18 1-26 9-28 27l-52-2c7-38 36-58 82-57s74 22 75 68l1 82c-1 14 12 18 25 15v27c-30 8-71 5-69-32zm-48 3c29 0 43-24 42-57-32 0-66-3-65 30 0 17 8 27 23 27" id="Q"/><path fill="#471b37" d="M25 0v-261h50V0H25" id="R"/><g id="e"><use transform="matrix(0.03703703703703704,0,0,0.03703703703703704,0,0)" xlink:href="#K"/><use transform="matrix(0.03703703703703704,0,0,0.03703703703703704,8.88888888888889,0)" xlink:href="#L"/><use transform="matrix(0.03703703703703704,0,0,0.03703703703703704,17,0)" xlink:href="#M"/><use transform="matrix(0.03703703703703704,0,0,0.03703703703703704,24.407407407407405,0)" xlink:href="#N"/><use transform="matrix(0.03703703703703704,0,0,0.03703703703703704,31.814814814814813,0)" xlink:href="#O"/><use transform="matrix(0.03703703703703704,0,0,0.03703703703703704,35.51851851851852,0)" xlink:href="#P"/><use transform="matrix(0.03703703703703704,0,0,0.03703703703703704,42.925925925925924,0)" xlink:href="#Q"/><use transform="matrix(0.03703703703703704,0,0,0.03703703703703704,50.33333333333333,0)" xlink:href="#R"/></g><path fill="#471b37" d="M230 0l2-204L168 0h-37L68-204 70 0H24v-248h70l56 185 57-185h69V0h-46" id="S"/><path fill="#471b37" d="M135-194c87-1 58 113 63 194h-50c-7-57 23-157-34-157-59 0-34 97-39 157H25l-1-190h47c2 12-1 28 3 38 12-26 28-41 61-42" id="T"/><path fill="#471b37" d="M195-6C206 82 75 100 31 46c-4-6-6-13-8-21l49-6c3 16 16 24 34 25 40 0 42-37 40-79-11 22-30 35-61 35-53 0-70-43-70-97 0-56 18-96 73-97 30 0 46 14 59 34l2-30h47zm-90-29c32 0 41-27 41-63 0-35-9-62-40-62-32 0-39 29-40 63 0 36 9 62 39 62" id="U"/><path fill="#471b37" d="M185-48c-13 30-37 53-82 52C43 2 14-33 14-96s30-98 90-98c62 0 83 45 84 108H66c0 31 8 55 39 56 18 0 30-7 34-22zm-45-69c5-46-57-63-70-21-2 6-4 13-4 21h74" id="V"/><g id="f"><use transform="matrix(0.03703703703703704,0,0,0.03703703703703704,0,0)" xlink:href="#S"/><use transform="matrix(0.03703703703703704,0,0,0.03703703703703704,11.074074074074076,0)" xlink:href="#Q"/><use transform="matrix(0.03703703703703704,0,0,0.03703703703703704,18.481481481481485,0)" xlink:href="#T"/><use transform="matrix(0.03703703703703704,0,0,0.03703703703703704,26.592592592592595,0)" xlink:href="#Q"/><use transform="matrix(0.03703703703703704,0,0,0.03703703703703704,34,0)" xlink:href="#U"/><use transform="matrix(0.03703703703703704,0,0,0.03703703703703704,42.111111111111114,0)" xlink:href="#V"/></g><g id="g"><use transform="matrix(0.030864197530864196,0,0,0.030864197530864196,0,0)" xlink:href="#t"/><use transform="matrix(0.030864197530864196,0,0,0.030864197530864196,6.172839506172839,0)" xlink:href="#u"/><use transform="matrix(0.030864197530864196,0,0,0.030864197530864196,9.25925925925926,0)" xlink:href="#v"/><use transform="matrix(0.030864197530864196,0,0,0.030864197530864196,15.432098765432098,0)" xlink:href="#C"/></g><path fill="#e6efed" d="M179-190L93 31C79 59 56 82 12 73V49c39 6 53-20 64-50L1-190h34L92-34l54-156h33" id="W"/><g id="h"><use transform="matrix(0.02469135802469136,0,0,0.02469135802469136,0,0)" xlink:href="#D"/><use transform="matrix(0.02469135802469136,0,0,0.02469135802469136,5.9259259259259265,0)" xlink:href="#E"/><use transform="matrix(0.02469135802469136,0,0,0.02469135802469136,10.8641975308642,0)" xlink:href="#F"/><use transform="matrix(0.02469135802469136,0,0,0.02469135802469136,15.80246913580247,0)" xlink:href="#G"/><use transform="matrix(0.02469135802469136,0,0,0.02469135802469136,20.740740740740744,0)" xlink:href="#H"/><use transform="matrix(0.02469135802469136,0,0,0.02469135802469136,25.679012345679016,0)" xlink:href="#I"/><use transform="matrix(0.02469135802469136,0,0,0.02469135802469136,28.14814814814815,0)" xlink:href="#W"/></g><path fill="#471b37" d="M67-125c0 53 21 87 73 88 37 1 54-22 65-47l45 17C233-25 199 4 140 4 58 4 20-42 15-125 8-235 124-281 211-232c18 10 29 29 36 50l-46 12c-8-25-30-41-62-41-52 0-71 34-72 86" id="X"/><path fill="#471b37" d="M110-194c64 0 96 36 96 99 0 64-35 99-97 99-61 0-95-36-95-99 0-62 34-99 96-99zm-1 164c35 0 45-28 45-65 0-40-10-65-43-65-34 0-45 26-45 65 0 36 10 65 43 65" id="Y"/><path fill="#471b37" d="M220-157c-53 9-28 100-34 157h-49v-107c1-27-5-49-29-50C55-147 81-57 75 0H25l-1-190h47c2 12-1 28 3 38 10-53 101-56 108 0 13-22 24-43 59-42 82 1 51 116 57 194h-49v-107c-1-25-5-48-29-50" id="Z"/><path fill="#471b37" d="M135-194c53 0 70 44 70 98 0 56-19 98-73 100-31 1-45-17-59-34 3 33 2 69 2 105H25l-1-265h48c2 10 0 23 3 31 11-24 29-35 60-35zM114-30c33 0 39-31 40-66 0-38-9-64-40-64-56 0-55 130 0 130" id="aa"/><path fill="#471b37" d="M85 4C-2 5 27-109 22-190h50c7 57-23 150 33 157 60-5 35-97 40-157h50l1 190h-47c-2-12 1-28-3-38-12 25-28 42-61 42" id="ab"/><path fill="#471b37" d="M115-3C79 11 28 4 28-45v-112H4v-33h27l15-45h31v45h36v33H77v99c-1 23 16 31 38 25v30" id="ac"/><g id="i"><use transform="matrix(0.03703703703703704,0,0,0.03703703703703704,0,0)" xlink:href="#X"/><use transform="matrix(0.03703703703703704,0,0,0.03703703703703704,9.592592592592593,0)" xlink:href="#Y"/><use transform="matrix(0.03703703703703704,0,0,0.03703703703703704,17.703703703703706,0)" xlink:href="#Z"/><use transform="matrix(0.03703703703703704,0,0,0.03703703703703704,29.555555555555554,0)" xlink:href="#aa"/><use transform="matrix(0.03703703703703704,0,0,0.03703703703703704,37.66666666666667,0)" xlink:href="#ab"/><use transform="matrix(0.03703703703703704,0,0,0.03703703703703704,45.777777777777786,0)" xlink:href="#ac"/><use transform="matrix(0.03703703703703704,0,0,0.03703703703703704,50.18518518518519,0)" xlink:href="#V"/></g><path fill="#e6efed" d="M147 0H94L2-248h55l64 206c17-72 42-137 63-206h54" id="ad"/><path fill="#e6efed" d="M25-224v-37h50v37H25zM25 0v-190h50V0H25" id="ae"/><path fill="#e6efed" d="M135-150c-39-12-60 13-60 57V0H25l-1-190h47c2 13-1 29 3 40 6-28 27-53 61-41v41" id="af"/><path fill="#e6efed" d="M115-3C79 11 28 4 28-45v-112H4v-33h27l15-45h31v45h36v33H77v99c-1 23 16 31 38 25v30" id="ag"/><path fill="#e6efed" d="M85 4C-2 5 27-109 22-190h50c7 57-23 150 33 157 60-5 35-97 40-157h50l1 190h-47c-2-12 1-28-3-38-12 25-28 42-61 42" id="ah"/><path fill="#e6efed" d="M133-34C117-15 103 5 69 4 32 3 11-16 11-54c-1-60 55-63 116-61 1-26-3-47-28-47-18 1-26 9-28 27l-52-2c7-38 36-58 82-57s74 22 75 68l1 82c-1 14 12 18 25 15v27c-30 8-71 5-69-32zm-48 3c29 0 43-24 42-57-32 0-66-3-65 30 0 17 8 27 23 27" id="ai"/><path fill="#e6efed" d="M25 0v-261h50V0H25" id="aj"/><g id="j"><use transform="matrix(0.02469135802469136,0,0,0.02469135802469136,0,0)" xlink:href="#ad"/><use transform="matrix(0.02469135802469136,0,0,0.02469135802469136,5.753086419753087,0)" xlink:href="#ae"/><use transform="matrix(0.02469135802469136,0,0,0.02469135802469136,8.222222222222223,0)" xlink:href="#af"/><use transform="matrix(0.02469135802469136,0,0,0.02469135802469136,11.679012345679013,0)" xlink:href="#ag"/><use transform="matrix(0.02469135802469136,0,0,0.02469135802469136,14.617283950617285,0)" xlink:href="#ah"/><use transform="matrix(0.02469135802469136,0,0,0.02469135802469136,20.024691358024693,0)" xlink:href="#ai"/><use transform="matrix(0.02469135802469136,0,0,0.02469135802469136,24.962962962962965,0)" xlink:href="#aj"/></g><path fill="#e6efed" d="M67-125c0 53 21 87 73 88 37 1 54-22 65-47l45 17C233-25 199 4 140 4 58 4 20-42 15-125 8-235 124-281 211-232c18 10 29 29 36 50l-46 12c-8-25-30-41-62-41-52 0-71 34-72 86" id="ak"/><path fill="#e6efed" d="M110-194c64 0 96 36 96 99 0 64-35 99-97 99-61 0-95-36-95-99 0-62 34-99 96-99zm-1 164c35 0 45-28 45-65 0-40-10-65-43-65-34 0-45 26-45 65 0 36 10 65 43 65" id="al"/><path fill="#e6efed" d="M135-194c87-1 58 113 63 194h-50c-7-57 23-157-34-157-59 0-34 97-39 157H25l-1-190h47c2 12-1 28 3 38 12-26 28-41 61-42" id="am"/><g id="k"><use transform="matrix(0.02469135802469136,0,0,0.02469135802469136,0,0)" xlink:href="#ak"/><use transform="matrix(0.02469135802469136,0,0,0.02469135802469136,6.395061728395063,0)" xlink:href="#al"/><use transform="matrix(0.02469135802469136,0,0,0.02469135802469136,11.80246913580247,0)" xlink:href="#am"/><use transform="matrix(0.02469135802469136,0,0,0.02469135802469136,17.209876543209877,0)" xlink:href="#ag"/><use transform="matrix(0.02469135802469136,0,0,0.02469135802469136,20.14814814814815,0)" xlink:href="#af"/><use transform="matrix(0.02469135802469136,0,0,0.02469135802469136,23.60493827160494,0)" xlink:href="#al"/><use transform="matrix(0.02469135802469136,0,0,0.02469135802469136,29.01234567901235,0)" xlink:href="#aj"/></g><path fill="#e6efed" d="M100-194c63 0 86 42 84 106H49c0 40 14 67 53 68 26 1 43-12 49-29l28 8c-11 28-37 45-77 45C44 4 14-33 15-96c1-61 26-98 85-98zm52 81c6-60-76-77-97-28-3 7-6 17-6 28h103" id="an"/><path fill="#e6efed" d="M59-47c-2 24 18 29 38 22v24C64 9 27 4 27-40v-127H5v-23h24l9-43h21v43h35v23H59v120" id="ao"/><path fill="#e6efed" d="M106-169C34-169 62-67 57 0H25v-261h32l-1 103c12-21 28-36 61-36 89 0 53 116 60 194h-32v-121c2-32-8-49-39-48" id="ap"/><g id="l"><use transform="matrix(0.030864197530864196,0,0,0.030864197530864196,0,0)" xlink:href="#an"/><use transform="matrix(0.030864197530864196,0,0,0.030864197530864196,6.172839506172839,0)" xlink:href="#ao"/><use transform="matrix(0.030864197530864196,0,0,0.030864197530864196,9.25925925925926,0)" xlink:href="#ap"/><use transform="matrix(0.030864197530864196,0,0,0.030864197530864196,15.432098765432098,0)" xlink:href="#H"/></g><path fill="#e6efed" d="M27 0v-27h64v-190l-56 39v-29l58-41h29v221h61V0H27" id="aq"/><g id="m"><use transform="matrix(0.030864197530864196,0,0,0.030864197530864196,0,0)" xlink:href="#an"/><use transform="matrix(0.030864197530864196,0,0,0.030864197530864196,6.172839506172839,0)" xlink:href="#ao"/><use transform="matrix(0.030864197530864196,0,0,0.030864197530864196,9.25925925925926,0)" xlink:href="#ap"/><use transform="matrix(0.030864197530864196,0,0,0.030864197530864196,15.432098765432098,0)" xlink:href="#aq"/></g><path fill="#e6efed" d="M185-189c-5-48-123-54-124 2 14 75 158 14 163 119 3 78-121 87-175 55-17-10-28-26-33-46l33-7c5 56 141 63 141-1 0-78-155-14-162-118-5-82 145-84 179-34 5 7 8 16 11 25" id="ar"/><path fill="#e6efed" d="M30-248c118-7 216 8 213 122C240-48 200 0 122 0H30v-248zM63-27c89 8 146-16 146-99s-60-101-146-95v194" id="as"/><path fill="#e6efed" d="M190 0L58-211 59 0H30v-248h39L202-35l-2-213h31V0h-41" id="at"/><g id="n"><use transform="matrix(0.02469135802469136,0,0,0.02469135802469136,0,0)" xlink:href="#ar"/><use transform="matrix(0.02469135802469136,0,0,0.02469135802469136,5.9259259259259265,0)" xlink:href="#as"/><use transform="matrix(0.02469135802469136,0,0,0.02469135802469136,12.320987654320989,0)" xlink:href="#at"/></g><path fill="#e6efed" d="M24-231v-30h32v30H24zM24 0v-190h32V0H24" id="au"/><path fill="#e6efed" d="M114-163C36-179 61-72 57 0H25l-1-190h30c1 12-1 29 2 39 6-27 23-49 58-41v29" id="av"/><path fill="#e6efed" d="M101-234c-31-9-42 10-38 44h38v23H63V0H32v-167H5v-23h27c-7-52 17-82 69-68v24" id="aw"/><path fill="#e6efed" d="M141-36C126-15 110 5 73 4 37 3 15-17 15-53c-1-64 63-63 125-63 3-35-9-54-41-54-24 1-41 7-42 31l-33-3c5-37 33-52 76-52 45 0 72 20 72 64v82c-1 20 7 32 28 27v20c-31 9-61-2-59-35zM48-53c0 20 12 33 32 33 41-3 63-29 60-74-43 2-92-5-92 41" id="ax"/><path fill="#e6efed" d="M96-169c-40 0-48 33-48 73s9 75 48 75c24 0 41-14 43-38l32 2c-6 37-31 61-74 61-59 0-76-41-82-99-10-93 101-131 147-64 4 7 5 14 7 22l-32 3c-4-21-16-35-41-35" id="ay"/><g id="o"><use transform="matrix(0.02469135802469136,0,0,0.02469135802469136,0,0)" xlink:href="#au"/><use transform="matrix(0.02469135802469136,0,0,0.02469135802469136,1.9506172839506175,0)" xlink:href="#F"/><use transform="matrix(0.02469135802469136,0,0,0.02469135802469136,6.888888888888889,0)" xlink:href="#ao"/><use transform="matrix(0.02469135802469136,0,0,0.02469135802469136,9.358024691358025,0)" xlink:href="#an"/><use transform="matrix(0.02469135802469136,0,0,0.02469135802469136,14.296296296296298,0)" xlink:href="#av"/><use transform="matrix(0.02469135802469136,0,0,0.02469135802469136,17.23456790123457,0)" xlink:href="#aw"/><use transform="matrix(0.02469135802469136,0,0,0.02469135802469136,19.703703703703706,0)" xlink:href="#ax"/><use transform="matrix(0.02469135802469136,0,0,0.02469135802469136,24.641975308641978,0)" xlink:href="#ay"/><use transform="matrix(0.02469135802469136,0,0,0.02469135802469136,29.08641975308642,0)" xlink:href="#an"/></g><path d="M115-194c55 1 70 41 70 98S169 2 115 4C84 4 66-9 55-30l1 105H24l-1-265h31l2 30c10-21 28-34 59-34zm-8 174c40 0 45-34 45-75s-6-73-45-74c-42 0-51 32-51 76 0 43 10 73 51 73" id="az"/><path d="M141 0L90-78 38 0H4l68-98-65-92h35l48 74 47-74h35l-64 92 68 98h-35" id="aA"/><g id="p"><use transform="matrix(0.03703703703703704,0,0,0.03703703703703704,0,0)" xlink:href="#az"/><use transform="matrix(0.03703703703703704,0,0,0.03703703703703704,7.407407407407408,0)" xlink:href="#aA"/><use transform="matrix(0.03703703703703704,0,0,0.03703703703703704,14.074074074074076,0)" xlink:href="#t"/></g><path d="M212-179c-10-28-35-45-73-45-59 0-87 40-87 99 0 60 29 101 89 101 43 0 62-24 78-52l27 14C228-24 195 4 139 4 59 4 22-46 18-125c-6-104 99-153 187-111 19 9 31 26 39 46" id="aB"/><path d="M114-163C36-179 61-72 57 0H25l-1-190h30c1 12-1 29 2 39 6-27 23-49 58-41v29" id="aC"/><path d="M24 0v-261h32V0H24" id="aD"/><g id="q"><use transform="matrix(0.03703703703703704,0,0,0.03703703703703704,0,0)" xlink:href="#aB"/><use transform="matrix(0.03703703703703704,0,0,0.03703703703703704,9.592592592592593,0)" xlink:href="#z"/><use transform="matrix(0.03703703703703704,0,0,0.03703703703703704,17,0)" xlink:href="#A"/><use transform="matrix(0.03703703703703704,0,0,0.03703703703703704,24.407407407407405,0)" xlink:href="#u"/><use transform="matrix(0.03703703703703704,0,0,0.03703703703703704,28.111111111111114,0)" xlink:href="#aC"/><use transform="matrix(0.03703703703703704,0,0,0.03703703703703704,32.51851851851852,0)" xlink:href="#z"/><use transform="matrix(0.03703703703703704,0,0,0.03703703703703704,39.925925925925924,0)" xlink:href="#aD"/></g><path d="M141-36C126-15 110 5 73 4 37 3 15-17 15-53c-1-64 63-63 125-63 3-35-9-54-41-54-24 1-41 7-42 31l-33-3c5-37 33-52 76-52 45 0 72 20 72 64v82c-1 20 7 32 28 27v20c-31 9-61-2-59-35zM48-53c0 20 12 33 32 33 41-3 63-29 60-74-43 2-92-5-92 41" id="aE"/><g id="r"><use transform="matrix(0.03703703703703704,0,0,0.03703703703703704,0,0)" xlink:href="#az"/><use transform="matrix(0.03703703703703704,0,0,0.03703703703703704,7.407407407407408,0)" xlink:href="#aD"/><use transform="matrix(0.03703703703703704,0,0,0.03703703703703704,10.333333333333334,0)" xlink:href="#aE"/><use transform="matrix(0.03703703703703704,0,0,0.03703703703703704,17.740740740740744,0)" xlink:href="#A"/><use transform="matrix(0.03703703703703704,0,0,0.03703703703703704,25.148148148148152,0)" xlink:href="#t"/></g><path d="M30-248c118-7 216 8 213 122C240-48 200 0 122 0H30v-248zM63-27c89 8 146-16 146-99s-60-101-146-95v194" id="aF"/><g id="s"><use transform="matrix(0.03703703703703704,0,0,0.03703703703703704,0,0)" xlink:href="#aF"/><use transform="matrix(0.03703703703703704,0,0,0.03703703703703704,9.592592592592593,0)" xlink:href="#aE"/><use transform="matrix(0.03703703703703704,0,0,0.03703703703703704,17,0)" xlink:href="#u"/><use transform="matrix(0.03703703703703704,0,0,0.03703703703703704,20.703703703703702,0)" xlink:href="#aE"/></g></defs></g></svg>