<svg xmlns="http://www.w3.org/2000/svg" xmlns:xlink="http://www.w3.org/1999/xlink" width="576" height="300"><g transform="translate(-80 -100)"><path d="M160 340h440v40H160z" fill="none"/><use xlink:href="#a" transform="matrix(1,0,0,1,160,340) translate(121.59450617283953 22.444444444444443)"/><use xlink:href="#b" transform="matrix(1,0,0,1,160,340) translate(188.95870370370372 22.444444444444443)"/><use xlink:href="#c" transform="matrix(1,0,0,1,160,340) translate(239.94635802469136 22.444444444444443)"/><use xlink:href="#d" transform="matrix(1,0,0,1,160,340) translate(275.29203703703706 22.444444444444443)"/><path d="M160 260h421.67v80H160z" fill="#4bbfaf"/><path d="M177.33 270h80v60h-80z" fill="#281724"/><use xlink:href="#e" transform="matrix(1,0,0,1,182.33333333333337,275) translate(17.611111111111107 27.666666666666668)"/><path d="M486 270h80v60h-80z" fill="#281724"/><use xlink:href="#f" transform="matrix(1,0,0,1,491,275) translate(29.444444444444443 27.666666666666668)"/><path d="M232.56 270l-.56-90" stroke="#471b37" stroke-width="3" fill="none"/><path d="M234.06 270h-1.5 1.5z" fill="#471b37"/><path d="M640 140H100" stroke="#e02d3a" stroke-width="3" fill="none"/><path d="M100 141.5h-3v-3h3z" fill="#e02d3a"/><path d="M100 180h540" stroke="#471b37" stroke-width="3" fill="none"/><path d="M100 181.5h-3v-3h3z" fill="#471b37"/><path d="M305.92 270V140" stroke="#e02d3a" stroke-width="3" fill="none"/><path d="M279.33 270h80v60h-80z" fill="#281724"/><use xlink:href="#g" transform="matrix(1,0,0,1,284.33333333333326,275) translate(22.796296296296298 19.666666666666668)"/><use xlink:href="#h" transform="matrix(1,0,0,1,284.33333333333326,275) translate(13.555555555555554 35.66666666666667)"/><path d="M334.56 270v-90" stroke="#471b37" stroke-width="3" fill="none"/><path d="M408.25 280V140" stroke="#e02d3a" stroke-width="3" fill="none"/><path d="M383 270h80v60h-80z" fill="#281724"/><use xlink:href="#i" transform="matrix(1,0,0,1,388,275) translate(0.24074074074074048 19.666666666666668)"/><use xlink:href="#j" transform="matrix(1,0,0,1,388,275) translate(4.333333333333332 35.66666666666667)"/><path d="M438.22 270v-90" stroke="#471b37" stroke-width="3" fill="none"/><path d="M203.45 270l.23-130" stroke="#e02d3a" stroke-width="3" fill="none"/><path d="M203.45 270h-1.5z" fill="#e02d3a"/><path d="M510.53 270l.24-130" stroke="#e02d3a" stroke-width="3" fill="none"/><path d="M510.53 270h-1.5z" fill="#e02d3a"/><path d="M542.9 270l-.9-90" stroke="#471b37" stroke-width="3" fill="none"/><path d="M544.4 270h-1.5 1.5z" fill="#471b37"/><path d="M100 120h60v40h-60z" fill="none"/><g><use xlink:href="#k" transform="matrix(1,0,0,1,100,120) translate(14.449444444444444 17.454444444444444)"/></g><path d="M100 160h140v40H100z" fill="none"/><g><use xlink:href="#l" transform="matrix(1,0,0,1,100,160) translate(42.45870370370371 17.454444444444444)"/></g><defs><path fill="#471b37" d="M24-248c93 1 206-16 204 79-1 75-69 88-152 82V0H24v-248zm52 121c47 0 100 7 100-41 0-47-54-39-100-39v80" id="m"/><path fill="#471b37" d="M114-157C55-157 80-60 75 0H25v-261h50l-1 109c12-26 28-41 61-42 86-1 58 113 63 194h-50c-7-57 23-157-34-157" id="n"/><path fill="#471b37" d="M123 10C108 53 80 86 19 72V37c35 8 53-11 59-39L3-190h52l48 148c12-52 28-100 44-148h51" id="o"/><path fill="#471b37" d="M137-138c1-29-70-34-71-4 15 46 118 7 119 86 1 83-164 76-172 9l43-7c4 19 20 25 44 25 33 8 57-30 24-41C81-84 22-81 20-136c-2-80 154-74 161-7" id="p"/><path fill="#471b37" d="M25-224v-37h50v37H25zM25 0v-190h50V0H25" id="q"/><path fill="#471b37" d="M190-63c-7 42-38 67-86 67-59 0-84-38-90-98-12-110 154-137 174-36l-49 2c-2-19-15-32-35-32-30 0-35 28-38 64-6 74 65 87 74 30" id="r"/><path fill="#471b37" d="M133-34C117-15 103 5 69 4 32 3 11-16 11-54c-1-60 55-63 116-61 1-26-3-47-28-47-18 1-26 9-28 27l-52-2c7-38 36-58 82-57s74 22 75 68l1 82c-1 14 12 18 25 15v27c-30 8-71 5-69-32zm-48 3c29 0 43-24 42-57-32 0-66-3-65 30 0 17 8 27 23 27" id="s"/><path fill="#471b37" d="M25 0v-261h50V0H25" id="t"/><g id="a"><use transform="matrix(0.043209876543209874,0,0,0.043209876543209874,0,0)" xlink:href="#m"/><use transform="matrix(0.043209876543209874,0,0,0.043209876543209874,10.37037037037037,0)" xlink:href="#n"/><use transform="matrix(0.043209876543209874,0,0,0.043209876543209874,19.833333333333332,0)" xlink:href="#o"/><use transform="matrix(0.043209876543209874,0,0,0.043209876543209874,28.475308641975307,0)" xlink:href="#p"/><use transform="matrix(0.043209876543209874,0,0,0.043209876543209874,37.11728395061728,0)" xlink:href="#q"/><use transform="matrix(0.043209876543209874,0,0,0.043209876543209874,41.438271604938265,0)" xlink:href="#r"/><use transform="matrix(0.043209876543209874,0,0,0.043209876543209874,50.08024691358025,0)" xlink:href="#s"/><use transform="matrix(0.043209876543209874,0,0,0.043209876543209874,58.72222222222222,0)" xlink:href="#t"/></g><path fill="#471b37" d="M185-48c-13 30-37 53-82 52C43 2 14-33 14-96s30-98 90-98c62 0 83 45 84 108H66c0 31 8 55 39 56 18 0 30-7 34-22zm-45-69c5-46-57-63-70-21-2 6-4 13-4 21h74" id="u"/><path fill="#471b37" d="M135-150c-39-12-60 13-60 57V0H25l-1-190h47c2 13-1 29 3 40 6-28 27-53 61-41v41" id="v"/><path fill="#471b37" d="M128 0H69L1-190h53L99-40l48-150h52" id="w"/><g id="b"><use transform="matrix(0.043209876543209874,0,0,0.043209876543209874,0,0)" xlink:href="#p"/><use transform="matrix(0.043209876543209874,0,0,0.043209876543209874,8.641975308641975,0)" xlink:href="#u"/><use transform="matrix(0.043209876543209874,0,0,0.043209876543209874,17.28395061728395,0)" xlink:href="#v"/><use transform="matrix(0.043209876543209874,0,0,0.043209876543209874,23.333333333333332,0)" xlink:href="#w"/><use transform="matrix(0.043209876543209874,0,0,0.043209876543209874,31.975308641975307,0)" xlink:href="#u"/><use transform="matrix(0.043209876543209874,0,0,0.043209876543209874,40.61728395061728,0)" xlink:href="#v"/></g><path fill="#471b37" d="M231 0h-52l-39-155L100 0H48L-1-190h46L77-45c9-52 24-97 36-145h53l37 145 32-145h46" id="x"/><path fill="#471b37" d="M115-3C79 11 28 4 28-45v-112H4v-33h27l15-45h31v45h36v33H77v99c-1 23 16 31 38 25v30" id="y"/><g id="c"><use transform="matrix(0.043209876543209874,0,0,0.043209876543209874,0,0)" xlink:href="#x"/><use transform="matrix(0.043209876543209874,0,0,0.043209876543209874,12.098765432098764,0)" xlink:href="#q"/><use transform="matrix(0.043209876543209874,0,0,0.043209876543209874,16.419753086419753,0)" xlink:href="#y"/><use transform="matrix(0.043209876543209874,0,0,0.043209876543209874,21.561728395061728,0)" xlink:href="#n"/></g><path fill="#471b37" d="M195 0l-88-114-31 24V0H24v-248h52v113l112-113h60L142-143 257 0h-62" id="z"/><path fill="#471b37" d="M147 0H94L2-248h55l64 206c17-72 42-137 63-206h54" id="A"/><path fill="#471b37" d="M230 0l2-204L168 0h-37L68-204 70 0H24v-248h70l56 185 57-185h69V0h-46" id="B"/><path fill="#471b37" d="M23 0v-37h61v-169l-59 37v-38l62-41h46v211h57V0H23" id="C"/><g id="d"><use transform="matrix(0.043209876543209874,0,0,0.043209876543209874,0,0)" xlink:href="#z"/><use transform="matrix(0.043209876543209874,0,0,0.043209876543209874,11.191358024691358,0)" xlink:href="#A"/><use transform="matrix(0.043209876543209874,0,0,0.043209876543209874,21.561728395061728,0)" xlink:href="#B"/><use transform="matrix(0.043209876543209874,0,0,0.043209876543209874,34.48148148148148,0)" xlink:href="#C"/></g><path fill="#e6efed" d="M230 0l2-204L168 0h-37L68-204 70 0H24v-248h70l56 185 57-185h69V0h-46" id="D"/><path fill="#e6efed" d="M133-34C117-15 103 5 69 4 32 3 11-16 11-54c-1-60 55-63 116-61 1-26-3-47-28-47-18 1-26 9-28 27l-52-2c7-38 36-58 82-57s74 22 75 68l1 82c-1 14 12 18 25 15v27c-30 8-71 5-69-32zm-48 3c29 0 43-24 42-57-32 0-66-3-65 30 0 17 8 27 23 27" id="E"/><path fill="#e6efed" d="M169-182c-1-43-94-46-97-3 18 66 151 10 154 114 3 95-165 93-204 36-6-8-10-19-12-30l50-8c3 46 112 56 116 5-17-69-150-10-154-114-4-87 153-88 188-35 5 8 8 18 10 28" id="F"/><g id="e"><use transform="matrix(0.03703703703703704,0,0,0.03703703703703704,0,0)" xlink:href="#D"/><use transform="matrix(0.03703703703703704,0,0,0.03703703703703704,11.074074074074076,0)" xlink:href="#E"/><use transform="matrix(0.03703703703703704,0,0,0.03703703703703704,18.481481481481485,0)" xlink:href="#E"/><use transform="matrix(0.03703703703703704,0,0,0.03703703703703704,25.888888888888893,0)" xlink:href="#F"/></g><path fill="#e6efed" d="M24 0v-54h51V0H24" id="G"/><g id="f"><use transform="matrix(0.03703703703703704,0,0,0.03703703703703704,0,0)" xlink:href="#G"/><use transform="matrix(0.03703703703703704,0,0,0.03703703703703704,3.703703703703704,0)" xlink:href="#G"/><use transform="matrix(0.03703703703703704,0,0,0.03703703703703704,7.407407407407408,0)" xlink:href="#G"/></g><path fill="#e6efed" d="M25 0v-261h50V0H25" id="H"/><path fill="#e6efed" d="M115-3C79 11 28 4 28-45v-112H4v-33h27l15-45h31v45h36v33H77v99c-1 23 16 31 38 25v30" id="I"/><g id="g"><use transform="matrix(0.03703703703703704,0,0,0.03703703703703704,0,0)" xlink:href="#F"/><use transform="matrix(0.03703703703703704,0,0,0.03703703703703704,8.88888888888889,0)" xlink:href="#E"/><use transform="matrix(0.03703703703703704,0,0,0.03703703703703704,16.296296296296298,0)" xlink:href="#H"/><use transform="matrix(0.03703703703703704,0,0,0.03703703703703704,20,0)" xlink:href="#I"/></g><path fill="#e6efed" d="M137-138c1-29-70-34-71-4 15 46 118 7 119 86 1 83-164 76-172 9l43-7c4 19 20 25 44 25 33 8 57-30 24-41C81-84 22-81 20-136c-2-80 154-74 161-7" id="J"/><path fill="#e6efed" d="M185-48c-13 30-37 53-82 52C43 2 14-33 14-96s30-98 90-98c62 0 83 45 84 108H66c0 31 8 55 39 56 18 0 30-7 34-22zm-45-69c5-46-57-63-70-21-2 6-4 13-4 21h74" id="K"/><path fill="#e6efed" d="M135-150c-39-12-60 13-60 57V0H25l-1-190h47c2 13-1 29 3 40 6-28 27-53 61-41v41" id="L"/><g id="h"><use transform="matrix(0.03703703703703704,0,0,0.03703703703703704,0,0)" xlink:href="#D"/><use transform="matrix(0.03703703703703704,0,0,0.03703703703703704,11.074074074074076,0)" xlink:href="#E"/><use transform="matrix(0.03703703703703704,0,0,0.03703703703703704,18.481481481481485,0)" xlink:href="#J"/><use transform="matrix(0.03703703703703704,0,0,0.03703703703703704,25.888888888888893,0)" xlink:href="#I"/><use transform="matrix(0.03703703703703704,0,0,0.03703703703703704,30.2962962962963,0)" xlink:href="#K"/><use transform="matrix(0.03703703703703704,0,0,0.03703703703703704,37.70370370370371,0)" xlink:href="#L"/></g><path fill="#e6efed" d="M140-251c80 0 125 45 125 126S219 4 139 4C58 4 15-44 15-125s44-126 125-126zm-1 214c52 0 73-35 73-88 0-50-21-86-72-86-52 0-73 35-73 86s22 88 72 88" id="M"/><path fill="#e6efed" d="M135-194c53 0 70 44 70 98 0 56-19 98-73 100-31 1-45-17-59-34 3 33 2 69 2 105H25l-1-265h48c2 10 0 23 3 31 11-24 29-35 60-35zM114-30c33 0 39-31 40-66 0-38-9-64-40-64-56 0-55 130 0 130" id="N"/><path fill="#e6efed" d="M135-194c87-1 58 113 63 194h-50c-7-57 23-157-34-157-59 0-34 97-39 157H25l-1-190h47c2 12-1 28 3 38 12-26 28-41 61-42" id="O"/><path fill="#e6efed" d="M190-63c-7 42-38 67-86 67-59 0-84-38-90-98-12-110 154-137 174-36l-49 2c-2-19-15-32-35-32-30 0-35 28-38 64-6 74 65 87 74 30" id="P"/><path fill="#e6efed" d="M147 0L96-86 75-71V0H25v-261h50v150l67-79h53l-66 74L201 0h-54" id="Q"/><g id="i"><use transform="matrix(0.03703703703703704,0,0,0.03703703703703704,0,0)" xlink:href="#M"/><use transform="matrix(0.03703703703703704,0,0,0.03703703703703704,10.370370370370372,0)" xlink:href="#N"/><use transform="matrix(0.03703703703703704,0,0,0.03703703703703704,18.481481481481485,0)" xlink:href="#K"/><use transform="matrix(0.03703703703703704,0,0,0.03703703703703704,25.888888888888893,0)" xlink:href="#O"/><use transform="matrix(0.03703703703703704,0,0,0.03703703703703704,34.00000000000001,0)" xlink:href="#F"/><use transform="matrix(0.03703703703703704,0,0,0.03703703703703704,42.8888888888889,0)" xlink:href="#I"/><use transform="matrix(0.03703703703703704,0,0,0.03703703703703704,47.296296296296305,0)" xlink:href="#E"/><use transform="matrix(0.03703703703703704,0,0,0.03703703703703704,54.70370370370371,0)" xlink:href="#P"/><use transform="matrix(0.03703703703703704,0,0,0.03703703703703704,62.111111111111114,0)" xlink:href="#Q"/></g><path fill="#e6efed" d="M110-194c64 0 96 36 96 99 0 64-35 99-97 99-61 0-95-36-95-99 0-62 34-99 96-99zm-1 164c35 0 45-28 45-65 0-40-10-65-43-65-34 0-45 26-45 65 0 36 10 65 43 65" id="R"/><g id="j"><use transform="matrix(0.03703703703703704,0,0,0.03703703703703704,0,0)" xlink:href="#P"/><use transform="matrix(0.03703703703703704,0,0,0.03703703703703704,7.407407407407408,0)" xlink:href="#R"/><use transform="matrix(0.03703703703703704,0,0,0.03703703703703704,15.51851851851852,0)" xlink:href="#O"/><use transform="matrix(0.03703703703703704,0,0,0.03703703703703704,23.629629629629633,0)" xlink:href="#I"/><use transform="matrix(0.03703703703703704,0,0,0.03703703703703704,28.03703703703704,0)" xlink:href="#L"/><use transform="matrix(0.03703703703703704,0,0,0.03703703703703704,33.22222222222223,0)" xlink:href="#R"/><use transform="matrix(0.03703703703703704,0,0,0.03703703703703704,41.333333333333336,0)" xlink:href="#H"/><use transform="matrix(0.03703703703703704,0,0,0.03703703703703704,45.037037037037045,0)" xlink:href="#H"/><use transform="matrix(0.03703703703703704,0,0,0.03703703703703704,48.74074074074075,0)" xlink:href="#K"/><use transform="matrix(0.03703703703703704,0,0,0.03703703703703704,56.14814814814815,0)" xlink:href="#L"/></g><path d="M24-248c93 1 206-16 204 79-1 75-69 88-152 82V0H24v-248zm52 121c47 0 100 7 100-41 0-47-54-39-100-39v80" id="S"/><path d="M182 0l-62-99L58 0H3l86-130-79-118h55l55 88 55-88h55l-75 118L237 0h-55" id="T"/><path d="M24 0v-248h195v40H76v63h132v40H76v65h150V0H24" id="U"/><g id="k"><use transform="matrix(0.043209876543209874,0,0,0.043209876543209874,0,0)" xlink:href="#S"/><use transform="matrix(0.043209876543209874,0,0,0.043209876543209874,10.37037037037037,0)" xlink:href="#T"/><use transform="matrix(0.043209876543209874,0,0,0.043209876543209874,20.74074074074074,0)" xlink:href="#U"/></g><path d="M67-125c0 53 21 87 73 88 37 1 54-22 65-47l45 17C233-25 199 4 140 4 58 4 20-42 15-125 8-235 124-281 211-232c18 10 29 29 36 50l-46 12c-8-25-30-41-62-41-52 0-71 34-72 86" id="V"/><path d="M110-194c64 0 96 36 96 99 0 64-35 99-97 99-61 0-95-36-95-99 0-62 34-99 96-99zm-1 164c35 0 45-28 45-65 0-40-10-65-43-65-34 0-45 26-45 65 0 36 10 65 43 65" id="W"/><path d="M135-194c87-1 58 113 63 194h-50c-7-57 23-157-34-157-59 0-34 97-39 157H25l-1-190h47c2 12-1 28 3 38 12-26 28-41 61-42" id="X"/><path d="M115-3C79 11 28 4 28-45v-112H4v-33h27l15-45h31v45h36v33H77v99c-1 23 16 31 38 25v30" id="Y"/><path d="M135-150c-39-12-60 13-60 57V0H25l-1-190h47c2 13-1 29 3 40 6-28 27-53 61-41v41" id="Z"/><path d="M25 0v-261h50V0H25" id="aa"/><g id="l"><use transform="matrix(0.043209876543209874,0,0,0.043209876543209874,0,0)" xlink:href="#V"/><use transform="matrix(0.043209876543209874,0,0,0.043209876543209874,11.191358024691358,0)" xlink:href="#W"/><use transform="matrix(0.043209876543209874,0,0,0.043209876543209874,20.65432098765432,0)" xlink:href="#X"/><use transform="matrix(0.043209876543209874,0,0,0.043209876543209874,30.11728395061728,0)" xlink:href="#Y"/><use transform="matrix(0.043209876543209874,0,0,0.043209876543209874,35.25925925925925,0)" xlink:href="#Z"/><use transform="matrix(0.043209876543209874,0,0,0.043209876543209874,41.30864197530863,0)" xlink:href="#W"/><use transform="matrix(0.043209876543209874,0,0,0.043209876543209874,50.771604938271594,0)" xlink:href="#aa"/></g></defs></g></svg>